<svg width="50" height="50" viewBox="0 0 50 50" fill="none" xmlns="http://www.w3.org/2000/svg">
<path d="M38.5418 22.9167V38.5417M38.5418 38.5417V45.8334H11.4584V38.5417M38.5418 38.5417H45.8334V22.9167C45.8334 19.7917 43.7501 16.1459 40.6251 13.5417C37.5001 10.9375 33.3334 10.4167 33.3334 10.4167L25.0001 18.75M11.4584 38.5417H4.16675V22.9167C4.16675 19.7917 6.25008 16.1459 9.37508 13.5417C12.5001 10.9375 16.6667 10.4167 16.6667 10.4167L25.0001 18.75M11.4584 38.5417V22.9167M25.0001 18.75V28.125" stroke="#FF0000" stroke-width="2" stroke-linecap="round" stroke-linejoin="round"/>
<path d="M9.37508 13.5417C12.5001 10.9375 16.6667 10.4167 16.6667 10.4167L25.0001 18.75L33.3334 10.4167C33.3334 10.4167 37.5001 10.9375 40.6251 13.5417L42.7084 8.85419L40.6251 4.16669H9.37508L7.29175 8.85419L9.37508 13.5417Z" stroke="#FF0000" stroke-width="2" stroke-linecap="round" stroke-linejoin="round"/>
</svg>
