<svg width="400" height="400" viewBox="0 0 400 400" fill="none" xmlns="http://www.w3.org/2000/svg">
<g filter="url(#filter0_d_17_2)">
<path d="M92.0625 126.438H81.125V172.375H89.875V178.938H81.125V231.438H92.0625V238H72.375V119.875H92.0625V126.438ZM110.175 119.875V231.438H118.925V238H101.425V119.875H110.175ZM150.162 126.438H139.225V172.375H147.975V178.938H139.225V231.438H150.162V238H130.475V119.875H150.162V126.438ZM185.775 168H177.025V130.812C177.025 130.266 177.002 129.673 176.957 129.035C176.911 128.397 176.752 127.827 176.478 127.326C176.205 126.779 175.772 126.324 175.179 125.959C174.587 125.594 173.744 125.412 172.65 125.412C171.556 125.412 170.713 125.594 170.121 125.959C169.528 126.324 169.095 126.779 168.822 127.326C168.548 127.827 168.389 128.397 168.343 129.035C168.298 129.673 168.275 130.266 168.275 130.812V227.062C168.275 227.609 168.298 228.27 168.343 229.045C168.389 229.774 168.548 230.48 168.822 231.164C169.095 231.848 169.528 232.44 170.121 232.941C170.713 233.397 171.556 233.625 172.65 233.625C173.744 233.625 174.587 233.397 175.179 232.941C175.772 232.44 176.205 231.848 176.478 231.164C176.752 230.48 176.911 229.774 176.957 229.045C177.002 228.27 177.025 227.609 177.025 227.062V183.312H174.838V176.75H185.775V227.062C185.775 227.609 185.707 228.612 185.57 230.07C185.433 231.483 184.955 232.941 184.134 234.445C183.314 235.949 182.015 237.271 180.238 238.41C178.461 239.595 175.931 240.188 172.65 240.188C169.369 240.188 166.839 239.595 165.062 238.41C163.285 237.271 161.986 235.949 161.166 234.445C160.345 232.941 159.867 231.483 159.73 230.07C159.593 228.612 159.525 227.609 159.525 227.062V130.812C159.525 130.448 159.548 129.901 159.593 129.172C159.639 128.443 159.776 127.645 160.004 126.779C160.231 125.868 160.619 124.956 161.166 124.045C161.713 123.088 162.464 122.222 163.421 121.447C164.379 120.673 165.609 120.057 167.113 119.602C168.617 119.1 170.463 118.85 172.65 118.85C174.838 118.85 176.683 119.1 178.187 119.602C179.691 120.057 180.921 120.673 181.879 121.447C182.836 122.222 183.588 123.088 184.134 124.045C184.681 124.956 185.069 125.868 185.296 126.779C185.524 127.645 185.661 128.443 185.707 129.172C185.752 129.901 185.775 130.448 185.775 130.812V168ZM221.387 238H212.637L211.544 209.562H205.05L203.887 238H195.137L201.7 119.875H214.825L221.387 238ZM210.45 176.75L208.262 124.25L206.075 176.75L205.05 203H211.544L210.45 176.75ZM257 238H248.25L237.312 150.5V238H230.75V119.875H239.5L250.438 207.375V119.875H257V238ZM294.8 168H286.05V130.812C286.05 129.719 285.913 128.83 285.64 128.146C285.412 127.417 285.093 126.87 284.683 126.506C284.273 126.096 283.794 125.822 283.247 125.686C282.746 125.503 282.222 125.412 281.675 125.412C281.128 125.412 280.581 125.503 280.034 125.686C279.533 125.822 279.077 126.096 278.667 126.506C278.257 126.87 277.915 127.417 277.642 128.146C277.414 128.83 277.3 129.719 277.3 130.812V227.062C277.3 227.609 277.323 228.27 277.368 229.045C277.414 229.774 277.573 230.48 277.847 231.164C278.12 231.848 278.553 232.44 279.146 232.941C279.738 233.397 280.581 233.625 281.675 233.625C282.769 233.625 283.612 233.397 284.204 232.941C284.797 232.44 285.23 231.848 285.503 231.164C285.777 230.48 285.936 229.774 285.982 229.045C286.027 228.27 286.05 227.609 286.05 227.062V181.125H294.8V227.062C294.8 227.609 294.732 228.612 294.595 230.07C294.458 231.483 293.98 232.941 293.159 234.445C292.339 235.949 291.04 237.271 289.263 238.41C287.486 239.595 284.956 240.188 281.675 240.188C278.394 240.188 275.864 239.595 274.087 238.41C272.31 237.271 271.011 235.949 270.191 234.445C269.37 232.941 268.892 231.483 268.755 230.07C268.618 228.612 268.55 227.609 268.55 227.062V130.812C268.55 128.716 268.937 126.916 269.712 125.412C270.487 123.863 271.489 122.609 272.72 121.652C273.996 120.695 275.409 119.989 276.958 119.533C278.508 119.077 280.08 118.85 281.675 118.85C283.361 118.85 284.979 119.1 286.529 119.602C288.124 120.103 289.536 120.855 290.767 121.857C291.997 122.86 292.977 124.113 293.706 125.617C294.435 127.121 294.8 128.853 294.8 130.812V168ZM315.1 150.5L317.288 181.125L319.475 150.5L321.663 119.875H330.413L321.663 196.438V238H312.913V196.438L304.163 119.875H312.913L315.1 150.5Z" fill="black"/>
<path d="M92.2436 303V302.26L94.121 301.82C94.3011 301.772 94.4528 301.677 94.5761 301.535C94.6993 301.393 94.761 301.217 94.761 301.009V285.251C94.761 285.033 94.6993 284.852 94.5761 284.71C94.4528 284.559 94.3011 284.464 94.121 284.426L92.2436 283.999V283.26H106.793V287.939H105.84L104.916 284.952C104.868 284.8 104.797 284.677 104.702 284.582C104.617 284.487 104.494 284.44 104.333 284.44H97.3921V292.12H101.872C102.062 292.12 102.199 292.077 102.285 291.992C102.37 291.907 102.436 291.793 102.484 291.651L103.237 289.332H104.048V296.116H103.237L102.484 293.827C102.436 293.665 102.37 293.542 102.285 293.457C102.199 293.362 102.062 293.315 101.872 293.315H97.3921V301.805H105.527C105.698 301.805 105.826 301.763 105.911 301.677C106.006 301.583 106.072 301.455 106.11 301.293L106.992 297.923H107.945V303H92.2436ZM121.567 302.189L121.268 297.069H122.178L123.216 299.928C123.264 300.042 123.354 300.175 123.487 300.326C123.629 300.468 123.752 300.573 123.856 300.639C124.293 300.914 124.771 301.165 125.293 301.393C125.824 301.611 126.341 301.782 126.843 301.905C127.355 302.028 127.801 302.09 128.18 302.09C129.431 302.09 130.427 301.758 131.167 301.094C131.906 300.431 132.276 299.492 132.276 298.278C132.276 297.406 132.034 296.695 131.551 296.145C131.077 295.595 130.432 295.145 129.616 294.794C128.886 294.49 128.156 294.258 127.426 294.097C126.706 293.926 125.99 293.699 125.279 293.414C124.207 292.978 123.373 292.357 122.775 291.551C122.178 290.736 121.879 289.754 121.879 288.607C121.879 287.526 122.154 286.55 122.704 285.677C123.264 284.796 124.022 284.099 124.98 283.587C125.938 283.075 127.014 282.819 128.208 282.819C128.882 282.819 129.536 282.866 130.171 282.961C130.806 283.046 131.418 283.16 132.006 283.302C132.603 283.444 133.172 283.601 133.712 283.772V288.508H132.802L131.892 285.848C131.845 285.706 131.754 285.578 131.622 285.464C131.498 285.341 131.385 285.241 131.28 285.165C130.996 284.957 130.65 284.781 130.242 284.639C129.834 284.487 129.417 284.374 128.991 284.298C128.573 284.222 128.208 284.184 127.895 284.184C126.739 284.184 125.833 284.478 125.179 285.066C124.525 285.644 124.198 286.384 124.198 287.284C124.198 288.062 124.378 288.797 124.738 289.489C125.108 290.172 125.833 290.712 126.914 291.11C127.616 291.357 128.303 291.57 128.976 291.75C129.65 291.93 130.384 292.182 131.181 292.504C131.778 292.751 132.347 293.068 132.887 293.457C133.428 293.846 133.874 294.348 134.224 294.964C134.575 295.581 134.751 296.363 134.751 297.311C134.751 298.316 134.499 299.288 133.997 300.227C133.504 301.165 132.717 301.938 131.636 302.545C130.565 303.152 129.161 303.455 127.426 303.455C126.857 303.455 126.246 303.393 125.591 303.27C124.947 303.147 124.283 302.991 123.6 302.801C122.918 302.602 122.24 302.398 121.567 302.189ZM151.779 303V302.26L153.913 301.82C154.093 301.782 154.244 301.692 154.368 301.549C154.491 301.398 154.553 301.217 154.553 301.009V284.44H149.987C149.807 284.44 149.67 284.487 149.575 284.582C149.49 284.677 149.423 284.8 149.376 284.952L148.437 288.081H147.527V283.26H164.266V288.081H163.342L162.403 284.952C162.356 284.8 162.29 284.677 162.204 284.582C162.119 284.487 161.991 284.44 161.82 284.44H157.198V301.009C157.198 301.227 157.26 301.407 157.383 301.549C157.516 301.692 157.672 301.782 157.852 301.82L159.986 302.26V303H151.779ZM175.407 301.521C175.407 301.009 175.588 300.577 175.948 300.227C176.308 299.876 176.744 299.7 177.256 299.7C177.749 299.7 178.176 299.876 178.536 300.227C178.897 300.577 179.077 301.009 179.077 301.521C179.077 302.014 178.897 302.441 178.536 302.801C178.176 303.152 177.749 303.327 177.256 303.327C176.744 303.327 176.308 303.152 175.948 302.801C175.588 302.441 175.407 302.014 175.407 301.521ZM212.588 303V301.564C213.954 300.483 215.182 299.553 216.272 298.776C217.362 297.999 218.287 297.283 219.045 296.628C219.813 295.974 220.401 295.311 220.809 294.637C221.217 293.955 221.42 293.177 221.42 292.305C221.42 291.357 221.226 290.584 220.837 289.987C220.449 289.38 219.737 289.076 218.704 289.076C218.211 289.076 217.713 289.181 217.211 289.389C216.718 289.598 216.239 289.859 215.774 290.172C215.319 290.475 214.902 290.788 214.523 291.11C214.153 291.423 213.83 291.698 213.555 291.935H213.143L212.745 289.503C213.01 289.332 213.432 289.105 214.011 288.82C214.589 288.536 215.257 288.28 216.016 288.052C216.774 287.815 217.557 287.697 218.363 287.697C219.472 287.697 220.463 287.849 221.335 288.152C222.217 288.455 222.909 288.929 223.411 289.574C223.923 290.209 224.179 291.03 224.179 292.035C224.179 293.059 223.938 293.945 223.454 294.694C222.98 295.434 222.326 296.116 221.491 296.742C220.657 297.359 219.695 297.989 218.604 298.634C217.523 299.269 216.371 299.994 215.148 300.81L215.291 300.838L216.955 300.767H223.084C223.397 300.767 223.63 300.696 223.781 300.554C223.942 300.412 224.047 300.236 224.094 300.028L224.492 298.42H225.317V303H212.588ZM246.26 303.398C244.876 303.398 243.662 303.081 242.619 302.445C241.585 301.81 240.78 300.919 240.201 299.772C239.632 298.615 239.348 297.264 239.348 295.718C239.348 294.287 239.632 292.988 240.201 291.821C240.77 290.646 241.581 289.712 242.633 289.02C243.695 288.327 244.951 287.981 246.402 287.981C247.985 287.981 249.284 288.346 250.299 289.076C251.323 289.797 252.081 290.74 252.575 291.907C253.077 293.073 253.328 294.324 253.328 295.661C253.328 297.084 253.044 298.383 252.475 299.558C251.916 300.724 251.11 301.658 250.057 302.36C249.014 303.052 247.748 303.398 246.26 303.398ZM246.473 302.346C247.27 302.346 247.929 302.147 248.45 301.748C248.972 301.341 249.384 300.819 249.687 300.184C250 299.539 250.218 298.847 250.342 298.108C250.474 297.368 250.541 296.657 250.541 295.974C250.541 294.865 250.394 293.779 250.1 292.717C249.815 291.646 249.356 290.764 248.72 290.072C248.085 289.37 247.246 289.02 246.203 289.02C245.416 289.02 244.757 289.223 244.226 289.631C243.705 290.029 243.292 290.551 242.989 291.196C242.685 291.831 242.467 292.518 242.335 293.258C242.211 293.997 242.15 294.708 242.15 295.391C242.15 296.131 242.216 296.908 242.349 297.724C242.491 298.529 242.728 299.283 243.06 299.985C243.392 300.687 243.837 301.255 244.397 301.692C244.956 302.128 245.648 302.346 246.473 302.346ZM267.613 303V301.564C268.979 300.483 270.207 299.553 271.297 298.776C272.387 297.999 273.312 297.283 274.07 296.628C274.838 295.974 275.426 295.311 275.834 294.637C276.241 293.955 276.445 293.177 276.445 292.305C276.445 291.357 276.251 290.584 275.862 289.987C275.474 289.38 274.762 289.076 273.729 289.076C273.236 289.076 272.738 289.181 272.236 289.389C271.743 289.598 271.264 289.859 270.799 290.172C270.344 290.475 269.927 290.788 269.548 291.11C269.178 291.423 268.855 291.698 268.58 291.935H268.168L267.77 289.503C268.035 289.332 268.457 289.105 269.036 288.82C269.614 288.536 270.282 288.28 271.041 288.052C271.799 287.815 272.582 287.697 273.388 287.697C274.497 287.697 275.488 287.849 276.36 288.152C277.242 288.455 277.934 288.929 278.436 289.574C278.948 290.209 279.204 291.03 279.204 292.035C279.204 293.059 278.963 293.945 278.479 294.694C278.005 295.434 277.351 296.116 276.516 296.742C275.682 297.359 274.72 297.989 273.629 298.634C272.548 299.269 271.396 299.994 270.173 300.81L270.316 300.838L271.98 300.767H278.109C278.422 300.767 278.655 300.696 278.806 300.554C278.967 300.412 279.072 300.236 279.119 300.028L279.517 298.42H280.342V303H267.613ZM294.501 303V301.564C295.866 300.483 297.094 299.553 298.184 298.776C299.275 297.999 300.199 297.283 300.958 296.628C301.726 295.974 302.314 295.311 302.721 294.637C303.129 293.955 303.333 293.177 303.333 292.305C303.333 291.357 303.138 290.584 302.75 289.987C302.361 289.38 301.65 289.076 300.616 289.076C300.123 289.076 299.626 289.181 299.123 289.389C298.63 289.598 298.151 289.859 297.687 290.172C297.232 290.475 296.814 290.788 296.435 291.11C296.065 291.423 295.743 291.698 295.468 291.935H295.056L294.657 289.503C294.923 289.332 295.345 289.105 295.923 288.82C296.501 288.536 297.17 288.28 297.928 288.052C298.687 287.815 299.469 287.697 300.275 287.697C301.384 287.697 302.375 287.849 303.248 288.152C304.129 288.455 304.821 288.929 305.324 289.574C305.836 290.209 306.092 291.03 306.092 292.035C306.092 293.059 305.85 293.945 305.367 294.694C304.893 295.434 304.238 296.116 303.404 296.742C302.57 297.359 301.607 297.989 300.517 298.634C299.436 299.269 298.284 299.994 297.061 300.81L297.203 300.838L298.867 300.767H304.997C305.31 300.767 305.542 300.696 305.694 300.554C305.855 300.412 305.959 300.236 306.007 300.028L306.405 298.42H307.23V303H294.501Z" fill="black"/>
</g>
<defs>
<filter id="filter0_d_17_2" x="68.375" y="118.85" width="266.038" height="192.606" filterUnits="userSpaceOnUse" color-interpolation-filters="sRGB">
<feFlood flood-opacity="0" result="BackgroundImageFix"/>
<feColorMatrix in="SourceAlpha" type="matrix" values="0 0 0 0 0 0 0 0 0 0 0 0 0 0 0 0 0 0 127 0" result="hardAlpha"/>
<feOffset dy="4"/>
<feGaussianBlur stdDeviation="2"/>
<feComposite in2="hardAlpha" operator="out"/>
<feColorMatrix type="matrix" values="0 0 0 0 0 0 0 0 0 0 0 0 0 0 0 0 0 0 0.25 0"/>
<feBlend mode="normal" in2="BackgroundImageFix" result="effect1_dropShadow_17_2"/>
<feBlend mode="normal" in="SourceGraphic" in2="effect1_dropShadow_17_2" result="shape"/>
</filter>
</defs>
</svg>
