<svg width="50" height="50" viewBox="0 0 50 50" fill="none" xmlns="http://www.w3.org/2000/svg">
<g clip-path="url(#clip0_20_22)">
<path d="M49.7079 1.98593C49.7735 1.98593 49.8219 1.99374 49.8547 2.01093C49.8875 2.02811 49.9032 2.05936 49.9032 2.1328L47.275 14.95V15.0062H47.1532C47.1282 15.0062 47.0547 15.0062 46.9329 14.9734H46.8438C46.6934 14.9514 46.5443 14.9217 46.3969 14.8844C46.2579 14.8516 46.1126 14.8516 45.9579 14.8516C43.7453 14.4862 41.5152 14.2364 39.2766 14.1031L38.4954 30.4844L38.3563 30.2328C38.3563 30.2 38.3235 30.2 38.3235 30.1672L38.2907 30.1344C38.2579 30.1344 38.225 30.1344 38.2016 30.1015C38.161 30.0687 38.161 30.0453 38.161 30.0125C38.1047 29.9797 38.0391 29.9469 38.0063 29.8828C37.9735 29.85 37.9172 29.7937 37.8516 29.7609C37.6609 29.6006 37.4655 29.4458 37.2657 29.2969C37.0141 29.1344 36.7938 28.9797 36.5735 28.8578L36.2079 28.6703L35.8657 28.4828C35.825 28.4828 35.8001 28.4828 35.7672 28.45L35.7344 28.3937L36.45 11.3031H36.6938C36.9454 11.3031 37.2313 11.3031 37.5079 11.3281C37.7922 11.3609 38.1016 11.3609 38.3782 11.3609L40.0954 11.4594C40.6563 11.4922 41.211 11.5484 41.7719 11.614L42.6422 11.7031L43.4891 11.8015H43.6766C43.75 11.8015 43.8641 11.8344 43.986 11.8578C44.1407 11.8906 44.3282 11.9234 44.5157 11.9234C44.7032 11.9562 44.8579 11.9562 44.9547 12.0219L46.5094 4.33124C46.4766 4.33124 46.436 4.33124 46.3704 4.29843L46.1188 4.19999C45.036 3.97968 43.9141 3.80155 42.7907 3.61405C41.6633 3.45615 40.5316 3.3311 39.3969 3.23905C38.5069 3.14245 37.6136 3.0799 36.7188 3.05155C35.8162 3.01309 34.9129 2.99121 34.0094 2.98593H32.3579C32.3579 3.05155 32.3579 3.11561 32.3329 3.17343L32.2344 3.4828L32.1454 3.77655C32.1122 3.9816 32.0518 4.18129 31.9657 4.3703C31.8844 4.58124 31.811 4.76874 31.7454 4.95624C31.55 5.33124 31.3469 5.67186 31.1344 5.98124C30.9235 6.32343 30.7032 6.6328 30.475 6.9828C29.9581 7.59276 29.3676 8.13647 28.7172 8.60155C28.0777 9.06763 27.3768 9.44306 26.6344 9.71717C25.6083 10.0998 24.5233 10.3007 23.4282 10.3109C23.1344 10.3109 22.8422 10.3109 22.525 10.2781C21.367 10.1879 20.2396 9.86135 19.2125 9.31874C18.4575 8.91787 17.7618 8.4141 17.1454 7.82186C16.8218 7.55195 16.527 7.2493 16.2657 6.91874C16.0202 6.58728 15.7892 6.24529 15.5735 5.89374L14.0844 6.42343L12.5954 6.98436C11.5782 7.32655 10.586 7.7328 9.60942 8.16405C8.64849 8.60311 7.6813 9.06717 6.74536 9.56405L5.31255 10.3453C4.84067 10.6219 4.36099 10.875 3.87192 11.1265V11.1516C3.87192 11.1844 3.8563 11.1844 3.82349 11.1844L3.63599 11.2734L3.56255 11.3391L6.7938 18.4437L7.20942 18.2234C7.3313 18.1578 7.48599 18.0687 7.64849 18.0031C8.6606 17.4816 9.68926 16.9928 10.7329 16.5375C11.7657 16.1062 12.8157 15.6672 13.8422 15.2594H13.9407L18.2125 32.4141C18.8969 32.1125 19.5391 31.8609 20.1329 31.6578C20.7516 31.4469 21.3204 31.2594 21.8829 31.0969C22.9704 30.8004 24.0772 30.5801 25.1954 30.4375C26.3294 30.2948 27.4711 30.2213 28.6141 30.2172C29.2 30.2172 29.7938 30.25 30.3875 30.2984C30.9485 30.3641 31.4782 30.4203 31.975 30.5187C32.5688 30.6484 33.1219 30.8281 33.6516 31.0156C34.1563 31.2359 34.6204 31.4547 35.0266 31.7641C35.4907 32.0734 35.8969 32.4156 36.2391 32.8219C36.5485 33.2281 36.8329 33.6594 37.0204 34.1328C37.2001 34.6297 37.2969 35.125 37.3297 35.6875C37.3297 36.2484 37.2641 36.7781 37.1422 37.275C37.0814 37.5316 36.9972 37.7821 36.8907 38.0234C36.7688 38.2672 36.6469 38.5203 36.4922 38.739C36.4922 38.7719 36.4922 38.7953 36.4594 38.7953C36.4266 38.7953 36.4266 38.8281 36.4266 38.8609L36.3282 38.95C36.2954 38.9828 36.2954 39.0156 36.2954 39.0484C36.2954 39.0812 36.2954 39.1047 36.3282 39.1375L36.3938 39.2672V39.3328L36.4266 39.389L36.6141 39.7953C36.6469 39.9172 36.6704 40.0719 36.6704 40.1937C36.8 40.7234 36.825 41.2594 36.7688 41.8125C36.7032 42.4062 36.5813 42.9687 36.3938 43.4969C36.0443 44.4018 35.4996 45.2186 34.7985 45.889C34.0579 46.6047 33.1219 47.2312 31.9985 47.7859C31.0853 48.2671 30.1257 48.6545 29.1344 48.9422C28.0766 49.2516 26.9297 49.5281 25.6516 49.7562C25.3344 49.8125 25.0579 49.8781 24.7813 49.9109L23.9672 49.9437L23.4469 50L23.2266 47.0453V47.0125H23.3157L23.3813 46.9797H23.6907L23.8125 46.8812H24.1875C24.3172 46.8812 24.4079 46.8484 24.5047 46.8484C25.0907 46.7594 25.6516 46.6609 26.1813 46.5469C26.7422 46.4172 27.2719 46.2953 27.8329 46.1406C28.3938 45.9859 28.9235 45.8234 29.4204 45.6359C29.9172 45.4891 30.3891 45.2703 30.8532 45.05C31.3829 44.7656 31.8219 44.4891 32.1954 44.1797C32.5688 43.8703 32.8797 43.5531 33.1235 43.2437C33.4542 42.8831 33.6621 42.4268 33.7172 41.9406V41.4687L33.4657 41.6562C33.4407 41.6891 33.3766 41.7125 33.311 41.7453L33.1 41.8437C32.661 42.1281 32.1969 42.3406 31.7 42.5594C31.2032 42.7781 30.6672 42.9984 30.1047 43.1859C29.575 43.3734 29.0469 43.5516 28.4938 43.6828C27.9235 43.8297 27.3704 43.9594 26.8422 44.0578C26.2485 44.1469 25.686 44.2453 25.1329 44.3016C24.5625 44.3672 24.0094 44.4312 23.4485 44.4641H23.1391C22.6094 44.4641 22.1063 44.4641 21.6735 44.3984C21.2094 44.3656 20.8032 44.2687 20.3954 44.1781C19.8571 44.0419 19.3436 43.822 18.8735 43.5266C18.4344 43.2422 18.125 42.9078 17.9375 42.4687C17.7075 42.0718 17.5999 41.6157 17.6282 41.1578C17.6282 40.6859 17.75 40.2219 17.9704 39.7906C18.1907 39.3844 18.5 39.0094 18.8735 38.6672C19.2469 38.325 19.711 38.0156 20.2407 37.7312C20.6797 37.5203 21.1438 37.3 21.6735 37.1453C22.1704 36.9906 22.7313 36.8031 23.325 36.6484C24.422 36.3465 25.5494 36.1688 26.686 36.1187C26.9063 36.0859 27.15 36.0531 27.4016 36.0531C27.6532 36.0203 27.8985 36.0203 28.1829 36.0203H29.111L30.0469 36.1187C30.3313 36.1515 30.6079 36.175 30.8844 36.2406C31.1688 36.3062 31.4141 36.339 31.6657 36.3953C31.8204 36.4281 31.975 36.4937 32.0969 36.525L32.4469 36.6469H32.4719C32.5047 36.6469 32.5375 36.6797 32.5375 36.6797L32.5704 36.7125L32.6594 36.7687L32.6032 36.8344C32.3188 37.4859 31.8219 38.014 31.0485 38.389C30.2672 38.7953 29.7375 39.0406 29.3969 39.1375H29.3641C29.3313 39.1047 29.3079 39.0719 29.2907 39.0719H28.3875C28.1032 39.0719 27.8172 39.0719 27.5407 39.1047C27.2641 39.1375 26.9954 39.1375 26.7344 39.1703C26.1485 39.2265 25.5782 39.325 25.025 39.4141C24.4982 39.514 23.9788 39.6497 23.4704 39.8203C23.1837 39.902 22.9038 40.0054 22.6329 40.1297C22.3719 40.2281 22.136 40.3172 21.9 40.4391C21.7704 40.5047 21.6563 40.5687 21.5422 40.6265C21.4342 40.6878 21.3284 40.7529 21.225 40.8219C21.1494 40.889 21.0678 40.9491 20.9813 41.0015C20.8836 41.0703 20.7985 41.1554 20.7297 41.2531C20.7625 41.2531 20.811 41.2531 20.8594 41.2859L21.136 41.3516V41.4078C21.2582 41.4421 21.3841 41.461 21.511 41.4641C21.65 41.4641 21.7954 41.4969 21.95 41.4969C22.0797 41.5297 22.211 41.5453 22.3407 41.5453H23.6016C24.1313 41.5453 24.6672 41.5125 25.2375 41.4156C25.7985 41.3344 26.3766 41.2609 26.9625 41.1469C27.5563 41.0172 28.1016 40.8859 28.6141 40.7156C29.1266 40.5531 29.6313 40.3656 30.1204 40.1781C30.3969 40.0891 30.65 39.9672 30.8688 39.8687C31.1125 39.7469 31.3329 39.625 31.5844 39.4937L32.1704 39.1516C32.3907 39.0219 32.6422 38.875 32.8625 38.7203C33.2047 38.4266 33.5141 38.0609 33.8235 37.6547C34.1657 37.2562 34.3204 36.7844 34.3204 36.2797C34.3204 36.0109 34.2875 35.7828 34.1985 35.564C34.1337 35.3431 34.0029 35.1474 33.8235 35.0031C33.4843 34.6528 33.0688 34.3854 32.6094 34.2219C32.0657 34.0213 31.5004 33.8849 30.925 33.8156C30.4213 33.7384 29.9127 33.6977 29.4032 33.6937C29.2407 33.6609 29.0938 33.6609 28.8985 33.6609H28.4344C27.4579 33.6609 26.4813 33.7344 25.5047 33.8812C24.5282 34.0359 23.5766 34.2234 22.6313 34.5C22.1024 34.6294 21.5809 34.7869 21.0688 34.9719C20.5391 35.1828 19.9938 35.3703 19.4079 35.6234C18.9516 35.8109 18.4797 35.9984 17.9922 36.2422L16.4375 37.0562L16.3485 37.1219L12.0438 19.2828L11.8563 19.3719L11.661 19.4703C10.611 19.9344 9.5938 20.4062 8.58442 20.9359C7.58142 21.4537 6.58853 21.9907 5.6063 22.5469L5.50005 22.6125L0.0969238 10.0562C0.0969238 10.0234 0.112549 10.0078 0.145361 9.99999L0.381299 9.8203C0.446924 9.78749 0.510986 9.74686 0.584424 9.69842C0.640674 9.64999 0.698486 9.60936 0.731299 9.56874C0.756299 9.56874 0.787549 9.56874 0.796924 9.55311H0.821924C1.05005 9.43124 1.2938 9.30936 1.52974 9.15468L2.29536 8.6828C2.74224 8.43905 3.2063 8.15311 3.67817 7.90936C4.17505 7.6578 4.61411 7.37186 5.07817 7.12811C6.02971 6.6381 6.99301 6.1713 7.96724 5.72811C8.93938 5.26733 9.9275 4.84102 10.9297 4.44999C11.9577 4.05475 12.9944 3.68278 14.0391 3.33436C15.0719 2.95936 16.1313 2.61874 17.2125 2.3328L17.311 2.26718V2.36561C17.4577 3.01051 17.6989 3.63022 18.0266 4.20468C18.3688 4.7578 18.775 5.25468 19.2391 5.72655C19.8329 6.22343 20.4844 6.62967 21.2329 6.93905C21.9813 7.22342 22.7547 7.3703 23.536 7.3703C23.6344 7.3703 23.7235 7.3453 23.8125 7.3453C23.8938 7.31249 23.9829 7.31249 24.0813 7.31249C24.8738 7.24293 25.6451 7.01893 26.3516 6.65311C27.0766 6.27811 27.7188 5.82343 28.2719 5.2203C28.8907 4.53593 29.3625 3.76405 29.6141 2.89218C29.8907 2.02186 29.9891 1.08593 29.825 0.149988L29.9235 0.117175L32.0391 0.0281128C32.7547 -0.00469971 33.4391 -0.00469971 34.1547 -0.00469971H35.4969C36.6438 0.0281128 37.7672 0.0937378 38.8907 0.149988C40.0063 0.215613 41.1282 0.337488 42.2516 0.459363C43.3344 0.58905 44.3922 0.743738 45.45 0.931238C46.5157 1.11874 47.5422 1.32968 48.6 1.61561L48.6985 1.64843L48.886 1.70468L49.261 1.80311C49.3829 1.83593 49.5047 1.85936 49.6032 1.92499H49.636C49.6688 1.92499 49.6922 1.9578 49.725 1.9578L49.7907 1.99061L49.7079 1.98593Z" fill="#FF0000"/>
</g>
<defs>
<clipPath id="clip0_20_22">
<rect width="50" height="50" fill="white"/>
</clipPath>
</defs>
</svg>
